<svg width="62" height="62" viewBox="0 0 62 62" fill="none" xmlns="http://www.w3.org/2000/svg">
<rect x="20.0917" y="19.8887" width="21.2387" height="3.1571" transform="rotate(-45 20.0917 19.8887)" fill="#F8CC19"></rect>
<rect x="29.9346" y="50.838" width="14.4939" height="8.89727" transform="rotate(-45 29.9346 50.838)" fill="#F8CC19"></rect>
<rect x="2.63831" y="27.6006" width="4.44864" height="15.4985" transform="rotate(-45 2.63831 27.6006)" fill="white"></rect>
<rect x="30.645" y="28.0065" width="4.44864" height="24.5393" transform="rotate(-45 30.645 28.0065)" fill="white"></rect>
<rect x="14.2062" y="44.4452" width="4.44864" height="24.5393" transform="rotate(-45 14.2062 44.4452)" fill="white"></rect>
<rect x="30.239" width="4.44864" height="42.7643" transform="rotate(45 30.239 0)" fill="white"></rect>
<rect x="50.8866" y="20.6476" width="4.44864" height="11.7674" transform="rotate(45 50.8866 20.6476)" fill="white"></rect>
<rect x="31.2537" y="27.3977" width="4.44864" height="24.1087" transform="rotate(45 31.2537 27.3977)" fill="white"></rect>
<rect x="45.9144" y="15.6754" width="4.44864" height="11.7674" transform="rotate(45 45.9144 15.6754)" fill="white"></rect>
<rect x="17.149" y="30.7463" width="4.44864" height="11.7674" transform="rotate(45 17.149 30.7463)" fill="white"></rect>
<rect x="39.0671" y="8.82816" width="4.44864" height="28.1269" transform="rotate(45 39.0671 8.82816)" fill="white"></rect>
<rect x="58.8543" y="28.6154" width="4.44864" height="11.7674" transform="rotate(45 58.8543 28.6154)" fill="white"></rect>
<rect x="37.6465" y="33.7905" width="4.44864" height="24.1087" transform="rotate(45 37.6465 33.7905)" fill="white"></rect>
<rect x="23.7447" y="26.9918" width="4.44864" height="10.0453" transform="rotate(135 23.7447 26.9918)" fill="white"></rect>
<rect x="48.9586" y="18.7196" width="4.44864" height="13.9199" transform="rotate(135 48.9586 18.7196)" fill="white"></rect>
<rect x="56.622" y="36.7332" width="4.44864" height="13.3459" transform="rotate(135 56.622 36.7332)" fill="white"></rect>
</svg>
